<?xml version="1.0" encoding="UTF-8"?>
<!DOCTYPE svg PUBLIC "-//W3C//DTD SVG 1.1//EN" "http://www.w3.org/Graphics/SVG/1.1/DTD/svg11.dtd">
<svg version="1.1" xmlns="http://www.w3.org/2000/svg" xmlns:xlink="http://www.w3.org/1999/xlink" x="0" y="0" width="36" height="36" viewBox="0, 0, 36, 36">
  <g id="Layer_1">
    <path d="M5.176,24.56 Q4.624,24.872 3.784,25.208 Q2.944,25.544 2.032,25.544 Q1.48,25.544 1.24,25.448 Q1,25.352 1,25.064 Q1,24.968 1.036,24.848 Q1.072,24.728 1.12,24.644 Q1.168,24.56 1.24,24.524 Q1.312,24.488 1.384,24.584 Q1.528,24.776 1.816,24.8 Q2.104,24.824 2.44,24.824 Q2.944,24.8 3.352,24.476 Q3.76,24.152 3.952,23.6 Q4.048,23.264 4.144,22.544 Q4.24,21.824 4.3,20.816 Q4.36,19.808 4.396,18.572 Q4.432,17.336 4.432,15.968 Q4.432,12.848 4.264,11.108 Q4.096,9.368 3.832,9.104 Q3.64,8.96 3.352,8.876 Q3.064,8.792 2.764,8.768 Q2.464,8.744 2.176,8.744 Q1.888,8.744 1.72,8.768 Q1.552,8.792 1.456,8.672 Q1.36,8.552 1.36,8.432 Q1.36,8 1.672,8 Q1.84,8 2.272,8.036 Q2.704,8.072 3.268,8.108 Q3.832,8.144 4.456,8.168 Q5.08,8.192 5.584,8.192 Q6.208,8.192 6.748,8 Q7.288,7.808 7.864,7.568 Q8.44,7.328 9.124,7.136 Q9.808,6.944 10.72,6.944 Q11.848,6.944 12.832,7.136 Q13.816,7.328 14.536,7.724 Q15.256,8.12 15.676,8.744 Q16.096,9.368 16.096,10.208 Q16.096,11.168 15.688,11.948 Q15.28,12.728 14.668,13.328 Q14.056,13.928 13.372,14.348 Q12.688,14.768 12.136,14.984 Q13.024,15.056 14.08,15.284 Q15.136,15.512 16.048,15.98 Q16.96,16.448 17.572,17.216 Q18.184,17.984 18.184,19.136 Q18.184,20.048 17.812,20.876 Q17.44,21.704 16.816,22.412 Q16.192,23.12 15.388,23.708 Q14.584,24.296 13.708,24.704 Q12.832,25.112 11.932,25.34 Q11.032,25.568 10.264,25.568 Q9.808,25.568 9.124,25.484 Q8.44,25.4 7.72,25.256 Q7,25.112 6.316,24.932 Q5.632,24.752 5.176,24.56 z M7.24,19.664 Q7.264,20.912 7.312,21.464 Q7.36,22.016 7.408,22.304 Q7.48,22.712 7.756,23.108 Q8.032,23.504 8.476,23.84 Q8.92,24.176 9.508,24.38 Q10.096,24.584 10.816,24.584 Q11.584,24.584 12.256,24.32 Q12.928,24.056 13.42,23.492 Q13.912,22.928 14.2,22.04 Q14.488,21.152 14.488,19.904 Q14.488,18.776 14.128,17.984 Q13.768,17.192 13.108,16.7 Q12.448,16.208 11.512,15.992 Q10.576,15.776 9.424,15.776 Q8.752,15.776 8.152,15.788 Q7.552,15.8 7.264,15.824 Q7.24,16.088 7.24,16.376 Q7.24,16.664 7.24,17 z M7.576,9.248 Q7.528,9.56 7.48,10.112 Q7.432,10.664 7.384,11.396 Q7.336,12.128 7.3,12.98 Q7.264,13.832 7.24,14.744 Q7.264,14.816 7.504,14.852 Q7.744,14.888 8.068,14.912 Q8.392,14.936 8.752,14.948 Q9.112,14.96 9.4,14.96 Q9.856,14.96 10.192,14.924 Q10.528,14.888 10.78,14.804 Q11.032,14.72 11.248,14.6 Q11.464,14.48 11.68,14.288 Q12.088,13.976 12.436,13.28 Q12.784,12.584 12.784,11.36 Q12.784,10.496 12.544,9.836 Q12.304,9.176 11.92,8.732 Q11.536,8.288 11.044,8.072 Q10.552,7.856 10.024,7.856 Q9.76,7.856 9.376,7.928 Q8.992,8 8.632,8.156 Q8.272,8.312 7.972,8.588 Q7.672,8.864 7.576,9.248 z" fill="#000000"/>
    <path d="M23.416,17.816 Q23.536,18.152 24.256,18.452 Q24.976,18.752 26.128,18.752 Q27.184,18.752 28.06,18.356 Q28.936,17.96 29.572,17.168 Q30.208,16.376 30.556,15.212 Q30.904,14.048 30.904,12.512 Q30.904,11.384 30.568,10.46 Q30.232,9.536 29.644,8.888 Q29.056,8.24 28.264,7.88 Q27.472,7.52 26.56,7.52 Q26.056,7.52 25.564,7.652 Q25.072,7.784 24.676,7.964 Q24.28,8.144 24.028,8.348 Q23.776,8.552 23.728,8.72 Q23.68,8.864 23.644,9.44 Q23.608,10.016 23.572,10.844 Q23.536,11.672 23.5,12.668 Q23.464,13.664 23.452,14.624 Q23.44,15.584 23.428,16.436 Q23.416,17.288 23.416,17.816 z M20.56,17.864 Q20.56,14.936 20.512,13.088 Q20.464,11.24 20.368,10.196 Q20.272,9.152 20.128,8.768 Q19.984,8.384 19.768,8.384 Q19.696,8.384 19.48,8.396 Q19.264,8.408 19.012,8.408 Q18.76,8.408 18.568,8.396 Q18.376,8.384 18.376,8.336 Q18.376,8.264 18.376,8.06 Q18.376,7.856 18.472,7.808 Q18.592,7.784 19,7.784 Q19.408,7.784 19.948,7.808 Q20.488,7.832 21.064,7.844 Q21.64,7.856 22.12,7.856 Q22.6,7.856 22.9,7.856 Q23.2,7.856 23.176,7.808 Q23.272,7.808 23.644,7.652 Q24.016,7.496 24.58,7.304 Q25.144,7.112 25.876,6.956 Q26.608,6.8 27.4,6.8 Q30.4,6.8 32.104,8.06 Q33.808,9.32 33.808,11.528 Q33.808,13.4 33.064,14.876 Q32.32,16.352 31.108,17.396 Q29.896,18.44 28.372,18.992 Q26.848,19.544 25.288,19.544 Q24.808,19.544 24.244,19.496 Q23.68,19.448 23.416,19.328 Q23.416,19.928 23.416,20.888 Q23.416,21.848 23.44,22.808 Q23.464,23.768 23.536,24.548 Q23.608,25.328 23.728,25.568 Q23.8,25.736 24.028,25.772 Q24.256,25.808 24.544,25.796 Q24.832,25.784 25.132,25.748 Q25.432,25.712 25.648,25.712 Q25.72,25.736 25.744,25.82 Q25.768,25.904 25.768,26.012 Q25.768,26.12 25.744,26.204 Q25.72,26.288 25.648,26.288 Q25.192,26.288 24.604,26.396 Q24.016,26.504 23.356,26.684 Q22.696,26.864 22.036,27.104 Q21.376,27.344 20.776,27.608 Q20.2,27.848 19.336,28.364 Q18.472,28.88 17.608,29.396 Q16.744,29.912 16.024,30.296 Q15.304,30.68 15.016,30.68 Q14.896,30.68 14.74,30.584 Q14.584,30.488 14.476,30.368 Q14.368,30.248 14.392,30.14 Q14.416,30.032 14.656,29.984 Q15.256,29.888 16.072,29.504 Q16.888,29.12 17.656,28.664 Q18.424,28.208 19.012,27.788 Q19.6,27.368 19.768,27.2 Q19.888,27.08 20.02,26.132 Q20.152,25.184 20.272,23.828 Q20.392,22.472 20.476,20.876 Q20.56,19.28 20.56,17.864 z" fill="#000000"/>
  </g>
</svg>
